<svg width="137" height="18" viewBox="0 0 137 18" fill="none" class="jss50"><path d="M3.725 18H.475L6.4 3c.317-.8.758-1.358 1.325-1.675.583-.333 1.325-.5 2.225-.5.883 0 1.608.167 2.175.5.583.317 1.025.875 1.325 1.675l5.7 15h-3.275L10.75 4.425c-.15-.383-.425-.575-.825-.575-.4 0-.683.192-.85.575L3.725 18zM23.428 1.125V12.15c0 .4.05.783.15 1.15.117.35.309.658.576.925.266.25.616.45 1.05.6.45.15 1.008.225 1.674.225h6.55V18h-6.724c-1.117 0-2.076-.142-2.876-.425-.783-.3-1.424-.708-1.924-1.225a4.746 4.746 0 01-1.1-1.825 8.09 8.09 0 01-.325-2.35V1.125h2.95zm24.277 0v2.95H42.78V18h-2.975V4.075H34.88v-2.95h12.825zm11.594 0c2.467 0 4.35.7 5.65 2.1 1.317 1.4 1.975 3.525 1.975 6.375 0 2.833-.658 4.942-1.975 6.325C63.65 17.308 61.766 18 59.3 18H57c-2.466 0-4.358-.692-5.675-2.075-1.3-1.383-1.95-3.492-1.95-6.325 0-2.85.65-4.975 1.95-6.375 1.317-1.4 3.209-2.1 5.675-2.1h2.3zM57 4.075c-1.633 0-2.825.433-3.575 1.3-.733.867-1.1 2.275-1.1 4.225 0 1.933.367 3.325 1.1 4.175.734.85 1.925 1.275 3.575 1.275h2.3c1.617 0 2.792-.425 3.525-1.275.75-.867 1.125-2.267 1.125-4.2 0-1.933-.366-3.333-1.1-4.2-.733-.867-1.916-1.3-3.55-1.3H57zm26.435-2.95v2.95h-8.65c-.766 0-1.325.192-1.675.575-.35.367-.525.842-.525 1.425 0 .25.034.5.1.75.084.233.217.45.4.65.2.183.459.333.775.45.317.1.725.15 1.225.15h3.95c1.15 0 2.092.15 2.825.45.734.283 1.309.658 1.725 1.125.434.467.725 1 .875 1.6.167.6.25 1.2.25 1.8 0 .717-.1 1.375-.3 1.975a4.12 4.12 0 01-.95 1.575c-.433.433-.991.775-1.675 1.025-.666.25-1.483.375-2.45.375h-9.4v-2.95h9.5c.8 0 1.384-.192 1.75-.575.384-.4.575-.908.575-1.525 0-.267-.041-.525-.125-.775a1.509 1.509 0 00-.425-.675c-.2-.2-.475-.358-.825-.475-.333-.117-.758-.175-1.275-.175h-3.925c-1.133 0-2.058-.142-2.775-.425-.716-.283-1.283-.658-1.7-1.125a4.143 4.143 0 01-.85-1.575 7.002 7.002 0 01-.225-1.75c0-.7.092-1.342.275-1.925.2-.6.509-1.117.925-1.55.434-.433.984-.767 1.65-1 .667-.25 1.467-.375 2.4-.375h8.55zm15.297 0v2.95h-4.925V18H90.83V4.075h-4.925v-2.95H98.73zm11.882 0c.95 0 1.767.142 2.45.425.683.267 1.242.633 1.675 1.1.45.45.775.983.975 1.6.217.617.325 1.258.325 1.925 0 .533-.067 1.067-.2 1.6a5.456 5.456 0 01-.625 1.475c-.283.45-.65.85-1.1 1.2-.45.35-1 .617-1.65.8l3.925 6.75h-3.275l-3.85-6.525h-4.4c-.283 0-.425.142-.425.425V18h-2.95v-6.675c0-.95.208-1.633.625-2.05.417-.417 1.092-.625 2.025-.625h6.575c.417 0 .775-.067 1.075-.2.3-.133.542-.308.725-.525.183-.217.317-.467.4-.75.1-.283.15-.575.15-.875 0-.6-.192-1.117-.575-1.55-.367-.45-.958-.675-1.775-.675h-9.25v-2.95h9.15zM121.035 18h-3.25l5.925-15c.316-.8.758-1.358 1.325-1.675.583-.333 1.325-.5 2.225-.5.883 0 1.608.167 2.175.5.583.317 1.025.875 1.325 1.675l5.7 15h-3.275L128.06 4.425c-.15-.383-.425-.575-.825-.575-.4 0-.684.192-.85.575L121.035 18z"></path></svg>