<svg width="110" height="40" viewBox="0 0 110 40" fill="none" xmlns="http://www.w3.org/2000/svg">
<path d="M28.2997 32.0001L24.3557 20.0001L34.6757 12.5851H21.9137L17.9697 0.580078H30.7327L34.6807 12.5841C35.8221 16.0797 35.8167 19.8486 34.6654 23.341C33.5142 26.8333 31.2771 29.8665 28.2807 31.9981L28.2997 32.0001ZM7.65368 32.0001L17.9737 39.4201L28.2997 32.0001L17.9797 24.5851L7.65368 32.0001ZM1.27368 12.5801C-1.13932 19.9231 1.66168 27.7001 7.65068 32.0031V32.0001L11.5947 20.0001L1.27468 12.5801L14.0347 12.5841L17.9697 0.580078H5.19968L1.27368 12.5801V12.5801ZM102.695 9.95508C100.639 9.95508 98.8997 10.9151 97.6647 12.7271C96.4397 14.5301 95.7877 17.0451 95.7877 20.0001C95.7877 22.9551 96.4347 25.4701 97.6647 27.2731C98.8987 29.0861 100.639 30.0451 102.695 30.0451C104.751 30.0451 106.49 29.0851 107.725 27.2731C108.95 25.4701 109.602 22.9551 109.602 20.0001C109.602 17.0451 108.955 14.5301 107.725 12.7271C106.491 10.9141 104.752 9.95508 102.695 9.95508ZM102.695 27.5481C101.713 27.5481 100.933 26.9981 100.318 25.8641C99.5747 24.4971 99.1657 22.4141 99.1657 19.9901C99.1657 17.5661 99.5737 15.4841 100.318 14.1161C100.933 12.9831 101.718 12.4321 102.695 12.4321C103.672 12.4321 104.457 12.9821 105.072 14.1161C105.815 15.4831 106.224 17.5661 106.224 19.9901C106.224 22.4141 105.816 24.4961 105.072 25.8641C104.452 27.0021 103.677 27.5481 102.695 27.5481ZM58.1197 17.2701V25.9061C58.1197 28.1821 59.9917 30.0361 62.2957 30.0361C64.2957 30.0361 65.8257 29.0491 66.3797 28.6361C66.4117 28.6131 66.4527 28.6041 66.4797 28.6181C66.5067 28.6321 66.5437 28.6581 66.5577 28.6961L66.8927 29.7881H69.3997V17.2701H66.2017V26.6221C66.2019 26.6439 66.196 26.6654 66.1847 26.6841C66.1734 26.7029 66.1571 26.7181 66.1377 26.7281C65.5377 27.0351 64.3377 27.5481 63.1597 27.5481C62.1457 27.5481 61.3197 26.7311 61.3197 25.7311V17.2711L58.1197 17.2701V17.2701ZM90.1447 29.7701H93.3427V21.1341C93.3427 18.8581 91.4707 17.0041 89.1667 17.0041C87.4737 17.0041 86.1107 17.7241 85.4497 18.1561C85.436 18.1651 85.4207 18.1712 85.4046 18.1741C85.3885 18.177 85.372 18.1765 85.3561 18.1728C85.3401 18.169 85.3251 18.1621 85.312 18.1523C85.2989 18.1426 85.2879 18.1302 85.2797 18.1161C85.2683 18.0977 85.2621 18.0767 85.2617 18.0551V10.2081H82.0637V29.7741H85.2617V20.4181C85.2617 20.3721 85.2847 20.3351 85.3257 20.3121C85.9257 20.0051 87.1257 19.4921 88.3037 19.4921C88.8037 19.4921 89.2577 19.6801 89.6037 20.0241C89.9497 20.3681 90.1407 20.8221 90.1407 21.3091L90.1447 29.7701V29.7701ZM71.7027 19.7701H73.6487C73.7127 19.7701 73.7687 19.8251 73.7687 19.8901V26.7731C73.7687 28.5811 75.2557 30.0531 77.0867 30.0531C77.7517 30.0531 78.4037 29.9571 79.0327 29.7731V27.5151L77.9447 27.5651C77.6869 27.5659 77.4393 27.4644 77.2561 27.283C77.073 27.1015 76.9693 26.8549 76.9677 26.5971V19.8841C76.9677 19.8201 77.0227 19.7641 77.0877 19.7641H79.0337V17.2701H77.0877C77.056 17.2696 77.0258 17.2568 77.0034 17.2344C76.981 17.212 76.9682 17.1817 76.9677 17.1501V13.0201H73.7697V17.1501C73.7697 17.2141 73.7147 17.2701 73.6497 17.2701H71.7037L71.7027 19.7701V19.7701ZM52.9997 29.7781H56.3267L51.2667 12.3321C50.8627 10.9321 49.5507 9.95508 48.0667 9.95508C47.3485 9.9542 46.6493 10.185 46.0728 10.6133C45.4963 11.0415 45.0733 11.6443 44.8667 12.3321L39.8067 29.7781H43.1337L44.5977 24.7261C44.6048 24.7011 44.6199 24.6791 44.6407 24.6634C44.6614 24.6477 44.6867 24.6392 44.7127 24.6391H51.3997C51.4257 24.6392 51.451 24.6477 51.4717 24.6634C51.4925 24.6791 51.5075 24.7011 51.5147 24.7261L52.9997 29.7781ZM50.6277 22.1561H45.5297C45.5113 22.1558 45.4932 22.1516 45.4766 22.1436C45.4601 22.1357 45.4454 22.1242 45.4337 22.1101C45.4229 22.0961 45.4156 22.0797 45.4124 22.0623C45.4093 22.0449 45.4104 22.027 45.4157 22.0101L47.9657 13.2101C47.9731 13.1853 47.9882 13.1636 48.009 13.1481C48.0297 13.1327 48.0548 13.1244 48.0807 13.1244C48.1065 13.1244 48.1317 13.1327 48.1524 13.1481C48.1731 13.1636 48.1883 13.1853 48.1957 13.2101L50.7457 22.0101C50.7557 22.0471 50.7507 22.0831 50.7277 22.1101C50.7166 22.124 50.7027 22.1353 50.6868 22.1432C50.6709 22.1512 50.6534 22.1556 50.6357 22.1561H50.6277V22.1561Z" fill="#777777"/>
</svg>

