<svg width="156" height="44" viewBox="0 0 156 44" fill="none" xmlns="http://www.w3.org/2000/svg">
<path d="M63.5998 32.7C54.9998 36.3 45.7998 38.2 36.5998 38.3C24.1998 38.3 11.9998 35.1 1.19983 28.9C0.299825 28.4 -0.300175 29.3 0.399825 29.9C10.0998 38.7 22.6998 43.5 35.7998 43.4C45.5998 43.4 56.8998 40.3 64.7998 34.6C66.0998 33.5 64.9998 32.1 63.5998 32.7V32.7ZM71.3998 28.3C70.4998 27.2 63.1998 26.3 58.6998 29.5C57.9998 30 58.0998 30.6 58.8998 30.6C61.3998 30.3 66.9998 29.6 68.0998 30.9C69.1998 32.2 66.9998 37.5 65.9998 39.8C65.6998 40.5 66.2998 40.8 66.9998 40.3C71.0998 36.7 72.1998 29.3 71.3998 28.3V28.3ZM63.7998 10.7L60.3998 9.6C59.3998 9.4 58.5998 8.9 57.7998 8.3C57.2998 7.9 57.0998 7.3 57.0998 6.6C56.9998 5.7 57.4998 4.9 58.1998 4.5C59.1998 4 60.2998 3.8 61.3998 3.8C62.9998 3.8 64.4998 4.1 65.9998 4.7C66.2998 4.9 66.5998 5 66.8998 5C67.2998 5 67.3998 4.8 67.3998 4.2V3.1C67.3998 2.8 67.2998 2.5 67.1998 2.3C66.9998 2.1 66.7998 1.9 66.4998 1.7C66.1998 1.5 65.7998 1.4 65.4998 1.3C65.0998 1.2 64.5998 1 64.0998 0.9L62.5998 0.6C62.0998 0.5 61.4998 0.5 60.9998 0.5C59.9998 0.5 58.9998 0.6 57.9998 0.9C57.0998 1.1 56.2998 1.6 55.4998 2.1C54.7998 2.6 54.1998 3.3 53.7998 4.1C53.3998 4.9 53.0998 5.8 53.0998 6.7C53.0998 8 53.4998 9.2 54.2998 10.2C55.2998 11.4 56.5998 12.2 58.0998 12.6L61.5998 13.7C62.4998 13.9 63.2998 14.4 63.9998 14.9C64.3998 15.3 64.6998 15.9 64.5998 16.6C64.5998 17.5 64.1998 18.4 63.3998 18.9C62.2998 19.5 61.0998 19.8 59.8998 19.7C58.8998 19.7 57.9998 19.6 57.0998 19.4C56.1998 19.2 55.2998 18.9 54.4998 18.6L53.8998 18.4C53.7998 18.3 53.5998 18.3 53.4998 18.3C53.0998 18.3 52.9998 18.5 52.9998 19V20.2C52.9998 20.8 53.2998 21.3 53.8998 21.5C54.7998 22 55.6998 22.3 56.6998 22.5C57.8998 22.8 59.0998 22.9 60.3998 22.9C61.4998 22.9 62.6998 22.8 63.7998 22.4C64.7998 22.1 65.6998 21.7 66.3998 21.1C67.0998 20.5 67.6998 19.8 68.1998 19C68.5998 18.1 68.7998 17.2 68.7998 16.2C68.7998 15 68.3998 13.8 67.6998 12.9C66.4998 11.9 65.2998 11.1 63.7998 10.7V10.7ZM20.4998 18.2C20.2998 17.5 20.1998 16.8 20.1998 16.1V8.4C20.1998 5.8 19.4998 3.8 18.1998 2.5C16.8998 1.2 14.7998 0.6 11.9998 0.6C10.6998 0.6 9.49983 0.7 8.29983 1.1C7.29983 1.4 6.29983 1.7 5.29983 2.2C4.99983 2.3 4.79982 2.5 4.59982 2.7C4.49982 3 4.39983 3.2 4.39983 3.5V4.7C4.39983 5.2 4.59983 5.5 4.89983 5.5C4.99983 5.5 5.19983 5.5 5.29983 5.4L6.19982 5.1C6.99982 4.8 7.89983 4.5 8.79983 4.3C9.59983 4.1 10.4998 4 11.3998 4C12.7998 3.9 14.1998 4.3 15.2998 5.1C16.1998 6.2 16.5998 7.5 16.3998 8.9V10.7C15.4998 10.5 14.5998 10.3 13.6998 10.2C12.8998 10.1 11.9998 10 11.1998 10C9.09983 9.9 6.99983 10.5 5.39983 11.9C3.99983 13.1 3.19983 14.9 3.19983 16.8C3.09983 18.5 3.79982 20.2 4.99983 21.4C6.29982 22.6 7.99983 23.2 9.79983 23.1C12.4998 23.1 15.0998 21.9 16.7998 19.8C16.9998 20.3 17.2998 20.8 17.4998 21.2C17.6998 21.6 17.9998 22 18.3998 22.3C18.5998 22.5 18.7998 22.6 19.0998 22.6C19.2998 22.6 19.4998 22.5 19.6998 22.4L21.1998 21.4C21.4998 21.3 21.5998 21 21.6998 20.7C21.6998 20.5 21.5998 20.3 21.4998 20.2C20.9998 19.4 20.6998 18.8 20.4998 18.2V18.2ZM16.0998 16.3C15.9998 16.9 15.6998 17.4 15.2998 17.8C14.6998 18.5 13.8998 19 12.9998 19.3C12.1998 19.6 11.3998 19.7 10.4998 19.7C9.59983 19.8 8.69982 19.5 7.99983 18.8C6.79982 17.2 6.89983 15 8.29983 13.5C9.29983 12.8 10.5998 12.4 11.7998 12.5C12.4998 12.5 13.2998 12.6 13.9998 12.6C14.7998 12.7 15.4998 12.8 16.1998 13V14C16.2998 14.9 16.1998 15.6 16.0998 16.3V16.3ZM50.8998 1.3H48.4998C48.1998 1.3 47.7998 1.4 47.5998 1.5C47.3998 1.8 47.1998 2.1 47.0998 2.4L42.9998 18.3L39.1998 2.4C39.1998 2 38.9998 1.7 38.6998 1.5C38.3998 1.3 38.0998 1.2 37.7998 1.3H35.8998C35.5998 1.3 35.1998 1.3 34.8998 1.5C34.6998 1.8 34.4998 2.1 34.3998 2.4L30.6998 18.1L26.6998 2.4C26.5998 2.1 26.4998 1.7 26.1998 1.5C25.8998 1.3 25.5998 1.2 25.2998 1.3H22.9998C22.6998 1.3 22.4998 1.5 22.3998 1.8V1.9C22.3998 2.2 22.4998 2.6 22.5998 2.9L28.1998 21.3C28.2998 21.7 28.3998 22 28.6998 22.2C28.9998 22.4 29.2998 22.5 29.5998 22.4H31.5998C31.9998 22.4 32.2998 22.4 32.5998 22.2C32.8998 21.9 32.9998 21.6 33.0998 21.2L36.7998 5.9L40.4998 21.2C40.4998 21.6 40.6998 21.9 40.9998 22.2C41.2998 22.4 41.5998 22.5 41.9998 22.4H43.9998C44.2998 22.4 44.5998 22.3 44.8998 22.2C45.1998 21.9 45.2998 21.6 45.3998 21.3L51.1998 2.9C51.2998 2.7 51.2998 2.5 51.3998 2.3V1.9C51.2998 1.6 51.0998 1.3 50.8998 1.3V1.3ZM94.2998 3.7C93.6998 3.7 93.0998 3.8 92.5998 4C91.9998 4.2 91.3998 4.6 90.8998 5L90.7998 4.2C90.7998 4 90.6998 3.9 90.4998 3.9H89.9998C89.8998 3.9 89.7998 4 89.7998 4.2V17.2C89.7998 17.3 89.8998 17.4 90.0998 17.4H90.5998C90.7998 17.4 90.8998 17.3 90.8998 17.1V12.4C91.7998 13.2 92.8998 13.6 94.0998 13.6C95.2998 13.6 96.3998 13.1 97.0998 12.2C97.8998 11.1 98.2998 9.8 98.1998 8.5C98.2998 7.2 97.8998 5.9 97.0998 4.9C96.4998 4.1 95.3998 3.7 94.2998 3.7V3.7ZM96.2998 11.7C95.6998 12.4 94.8998 12.8 93.9998 12.7H94.0998C93.5998 12.7 92.9998 12.6 92.5998 12.4C91.9998 12.1 91.4998 11.8 91.0998 11.4V5.9C91.9998 5.2 93.0998 4.8 94.1998 4.7C96.1998 4.7 97.1998 6 97.1998 8.7C97.1998 9.8 96.8998 10.9 96.2998 11.7V11.7ZM103.7 8C102.8 7.9 101.9 8.2 101.1 8.8C99.8998 9.9 99.7998 11.8 100.9 13C101.5 13.5 102.2 13.8 103 13.7C104.3 13.7 105.5 13.2 106.4 12.4L106.5 13.2C106.5 13.4 106.7 13.5 106.8 13.4H107.2C107.4 13.4 107.5 13.3 107.5 13.1V6.4C107.6 5.6 107.3 4.8 106.7 4.3C106 3.8 105.1 3.5 104.2 3.6C103.1 3.6 102 3.8 101 4.2C100.9 4.2 100.9 4.3 100.8 4.3C100.8 4.4 100.7 4.5 100.7 4.5V5C100.7 5.2 100.8 5.2 100.9 5.2C101 5.2 101.1 5.2 101.2 5.1C102.1 4.8 103 4.6 104 4.6C104.6 4.5 105.3 4.7 105.8 5.1C106.2 5.5 106.4 6.1 106.3 6.7V8.3C105.5 8.2 104.6 8 103.7 8ZM106.4 11.6C105.9 11.9 105.3 12.2 104.7 12.4C104.2 12.6 103.7 12.7 103.2 12.7C102.7 12.7 102.2 12.6 101.8 12.2C101.5 11.8 101.3 11.4 101.3 10.9C101.3 9.6 102.2 8.9 103.9 8.9C104.7 8.9 105.6 9 106.4 9.2V11.6V11.6ZM110.6 13.5H111.2C111.3 13.5 111.4 13.4 111.4 13.2V6.2C111.8 5.8 112.2 5.4 112.7 5.2C113.2 5 113.7 4.9 114.2 4.9H114.9C115 4.9 115 4.9 115 4.8L115.1 4.7V4.2C115.1 4.1 115 3.9 114.8 3.9H114.3C113.8 3.9 113.2 4 112.7 4.2C112.2 4.5 111.7 4.9 111.3 5.3L111.2 4.2C111.2 4 111.1 3.9 110.9 3.9H110.5C110.3 3.9 110.2 4 110.2 4.2V13.2C110.3 13.4 110.4 13.5 110.6 13.5V13.5ZM116.4 4.9H117.9V11.3C117.9 11.9 118.1 12.6 118.5 13C119 13.4 119.6 13.6 120.2 13.6C120.8 13.6 121.4 13.5 121.9 13.4C122 13.3 122.1 13.2 122.1 13V12.7C122.1 12.6 122 12.5 121.9 12.5H121.7L121.4 12.6C121.1 12.7 120.7 12.7 120.4 12.7C120 12.7 119.6 12.6 119.3 12.4C119 12.1 118.9 11.7 119 11.3V5H121.9C122 5 122.1 4.9 122.1 4.7V4.2C122.1 4.1 122 4 121.8 4H119V1.4C119 1.3 118.9 1.2 118.7 1.2H118.4C118.3 1.2 118.3 1.2 118.2 1.3C118.2 1.4 118.1 1.4 118.1 1.5L118 4L116.4 4.2C116.3 4.2 116.2 4.2 116.2 4.3V4.8C116.1 4.9 116.2 5 116.4 4.9V4.9ZM130.9 13.3C130.9 13.5 131 13.6 131.2 13.6H131.7C131.9 13.6 132 13.5 132 13.3V6.7C132.1 5.9 131.8 5.1 131.3 4.5C130.7 4 130 3.7 129.2 3.8C128.5 3.8 127.8 3.9 127.2 4.2C126.5 4.4 125.8 4.8 125.2 5.2L125.1 4.4C125.1 4.2 124.9 4.1 124.8 4.2H124.4C124.2 4.2 124.1 4.3 124.1 4.5V13.5C124.1 13.7 124.2 13.8 124.4 13.8H125.1C125.2 13.8 125.3 13.7 125.3 13.5V6.2C126.4 5.4 127.7 5 129 5C129.6 5 130.1 5.2 130.5 5.6C130.9 6.1 131 6.8 131 7.4V13.3H130.9V13.3ZM142.2 8.7C142.3 8.3 142.3 7.9 142.3 7.6C142.4 6.6 142 5.6 141.4 4.8C140.7 4.1 139.7 3.7 138.8 3.8C137.6 3.7 136.4 4.2 135.6 5.1C134.8 6.2 134.4 7.5 134.5 8.8C134.4 10.2 134.8 11.5 135.6 12.6C136.5 13.5 137.7 14 139 13.9C140 13.9 141.1 13.7 142 13.3C142.1 13.2 142.2 13.1 142.2 12.9V12.6C142.2 12.5 142.2 12.5 142.1 12.4L142 12.3C141.9 12.3 141.8 12.3 141.7 12.4C140.9 12.7 140 12.9 139.1 12.9C138.1 13 137.2 12.6 136.5 12C135.9 11.2 135.6 10.1 135.6 9.1H142C142 9 142.1 8.8 142.2 8.7ZM141.2 8.1H135.4C135.5 5.8 136.5 4.7 138.5 4.7C139.2 4.6 139.9 4.9 140.5 5.4C141 6 141.2 6.7 141.2 7.5V8.1V8.1ZM149.4 4.8L149.5 4.7V4.2C149.5 4 149.4 3.9 149.2 3.9H148.7C148.2 3.9 147.6 4 147.1 4.2C146.6 4.5 146.1 4.9 145.7 5.3L145.6 4.2C145.6 4 145.5 3.9 145.3 3.9H144.9H144.8C144.7 3.9 144.6 4 144.6 4.2V13.3C144.6 13.4 144.7 13.5 144.9 13.5H145.5C145.6 13.5 145.7 13.4 145.7 13.2V6.2C146.1 5.8 146.5 5.4 147 5.2C147.5 5 148 4.9 148.5 4.9H149.2C149.3 4.9 149.3 4.9 149.4 4.8V4.8ZM94.8998 24.7C94.1998 24.7 93.4998 24.8 92.8998 25.1C92.1998 25.3 91.4998 25.7 90.8998 26.1L90.7998 25.3C90.7998 25.1 90.6998 25 90.4998 25H89.9998C89.8998 25 89.7998 25.1 89.7998 25.3V34.3C89.7998 34.5 89.8998 34.6 90.0998 34.6H90.6998C90.7998 34.6 90.8998 34.5 90.8998 34.3V27C91.9998 26.2 93.2998 25.8 94.5998 25.8C95.1998 25.8 95.6998 26 96.0998 26.4C96.4998 26.9 96.5998 27.6 96.5998 28.2V34.5C96.5998 34.6 96.6998 34.7 96.8998 34.7H97.3998C97.5998 34.7 97.6998 34.6 97.6998 34.4V27.8C97.7998 27 97.4998 26.2 96.9998 25.6C96.4998 24.9 95.6998 24.7 94.8998 24.7V24.7ZM104.5 24.7C103.3 24.6 102.1 25.1 101.3 26C100.5 27.1 100.1 28.4 100.1 29.7C99.9998 31.1 100.4 32.4 101.2 33.5C102.1 34.4 103.3 34.9 104.6 34.8C105.6 34.8 106.7 34.6 107.6 34.2C107.7 34.1 107.8 34 107.8 33.8V33.5C107.8 33.4 107.8 33.4 107.7 33.3L107.6 33.2C107.5 33.2 107.4 33.2 107.3 33.3C106.5 33.6 105.6 33.8 104.7 33.8C103.7 33.9 102.8 33.5 102.1 32.9C101.5 32.1 101.2 31 101.2 30H107.6C107.8 30 107.9 29.9 107.9 29.7C108 29.3 108 28.9 108 28.6C108.1 27.6 107.7 26.6 107.1 25.8C106.4 25 105.5 24.7 104.5 24.7V24.7ZM107 29.1H101.2C101.4 26.8 102.4 25.7 104.4 25.7C105.1 25.6 105.9 25.9 106.4 26.4C106.9 27 107.1 27.7 107.1 28.5C107 28.7 107 28.9 107 29.1V29.1ZM115.1 33.5H114.9L114.6 33.6C114.3 33.7 113.9 33.7 113.6 33.7C113.2 33.7 112.8 33.6 112.5 33.4C112.2 33.1 112.1 32.7 112.2 32.3V26H114.9C115.1 26 115.2 25.9 115.2 25.7V25.3C115.2 25.1 115.1 25 114.9 25H112.2V22.5C112.2 22.4 112.1 22.3 111.9 22.3H111.6C111.5 22.3 111.5 22.3 111.4 22.4C111.3 22.5 111.3 22.5 111.3 22.6L111.2 25.1L109.7 25.2C109.6 25.2 109.5 25.2 109.5 25.3C109.5 25.4 109.4 25.4 109.4 25.5V25.7C109.4 25.9 109.5 26 109.7 26H111.2V32.3C111.2 32.9 111.4 33.6 111.8 34C112.3 34.4 112.9 34.6 113.5 34.6C114.1 34.6 114.7 34.5 115.2 34.4C115.3 34.3 115.4 34.2 115.4 34V33.7C115.3 33.6 115.2 33.5 115.1 33.5V33.5ZM129.4 25H128.8C128.6 25 128.5 25.1 128.5 25.2L125.9 33.3L123.6 25.2C123.6 25 123.4 24.9 123.2 24.9H122.5C122.3 24.9 122.2 25 122.1 25.2L119.8 33.2L117.2 25.2C117.2 25.1 117 25 116.9 25H116.3C116.1 25 116.1 25.1 116.1 25.2C116.1 25.3 116.1 25.4 116.2 25.5L119.2 34.3C119.2 34.5 119.4 34.6 119.6 34.6H120.2C120.4 34.6 120.5 34.5 120.6 34.3L122.9 26.3L125.2 34.3C125.2 34.5 125.4 34.6 125.6 34.6H126.2C126.4 34.6 126.5 34.5 126.6 34.3L129.7 25.5C129.7 25.4 129.8 25.3 129.8 25.2C129.6 25.1 129.5 25 129.4 25V25ZM132 26.1C131.2 27.2 130.8 28.5 130.8 29.8C130.7 31.1 131.1 32.5 132 33.5C132.8 34.4 134 34.9 135.2 34.8C136.4 34.9 137.6 34.4 138.4 33.5C139.2 32.4 139.6 31.1 139.5 29.8C139.6 28.5 139.2 27.1 138.4 26.1C136.7 24.3 133.8 24.3 132 26.1V26.1ZM135.2 33.8C133 33.8 131.9 32.4 131.9 29.7C131.9 27 133 25.7 135.2 25.7C137.4 25.7 138.5 27 138.5 29.7C138.5 32.4 137.4 33.8 135.2 33.8ZM146.6 24.9H146.1C145.6 24.9 145 25 144.5 25.2C144 25.5 143.5 25.9 143.1 26.3L143 25.2C143 25 142.9 24.9 142.7 24.9H142.3C142.1 24.9 142 25 142 25.2V34.3C142 34.4 142.1 34.5 142.3 34.5H142.8C143 34.5 143.1 34.4 143.1 34.2V27.2C143.5 26.8 143.9 26.4 144.4 26.2C144.9 26 145.4 25.9 145.9 25.9H146.6C146.7 25.9 146.7 25.9 146.8 25.8L146.9 25.7V25.2C146.9 25 146.8 24.9 146.6 24.9V24.9ZM155.8 34.1L150.9 29.5L155.5 25.5C155.6 25.4 155.7 25.3 155.7 25.2C155.7 25.1 155.6 25 155.5 25H154.8C154.6 25 154.4 25.1 154.3 25.2L149.8 29.2V20.8C149.8 20.6 149.7 20.5 149.5 20.5H149H148.9C148.8 20.5 148.7 20.6 148.7 20.8V34.3C148.7 34.4 148.8 34.5 149 34.5L149.5 34.6C149.7 34.6 149.8 34.5 149.8 34.3V29.9L154.6 34.4C154.7 34.5 154.9 34.6 155 34.6H155.8C156 34.6 156 34.5 156 34.4C155.9 34.3 155.8 34.2 155.8 34.1V34.1Z" fill="#777777"/>
</svg>
