<svg width="114" height="33" viewBox="0 0 114 33" fill="none" xmlns="http://www.w3.org/2000/svg">
<path d="M46.9021 21.7601H45.3781C45.3276 21.7601 45.2779 21.7719 45.2328 21.7945C45.1877 21.817 45.1484 21.8498 45.1181 21.8901C44.5283 22.7635 43.6737 23.4245 42.6802 23.7759C41.6866 24.1273 40.6065 24.1505 39.5987 23.8421C38.591 23.5337 37.7088 22.91 37.082 22.0628C36.4553 21.2155 36.117 20.1894 36.117 19.1356C36.117 18.0817 36.4553 17.0556 37.082 16.2084C37.7088 15.3611 38.591 14.7374 39.5987 14.429C40.6065 14.1206 41.6866 14.1438 42.6802 14.4952C43.6737 14.8466 44.5283 15.5077 45.1181 16.3811C45.1801 16.4611 45.2761 16.5111 45.3781 16.5111H46.9021C46.9578 16.5105 47.0124 16.4958 47.061 16.4684C47.1095 16.441 47.1503 16.4018 47.1795 16.3543C47.2088 16.3069 47.2255 16.2529 47.2282 16.1972C47.231 16.1415 47.2196 16.0861 47.1951 16.0361C46.621 14.8957 45.7414 13.9373 44.6544 13.2677C43.5674 12.5981 42.3158 12.2437 41.0391 12.2441C39.8121 12.2436 38.6072 12.5706 37.5488 13.1913C36.4904 13.812 35.6168 14.7039 35.0183 15.775C34.4197 16.8461 34.1179 18.0576 34.1439 19.2843C34.1699 20.511 34.5229 21.7085 35.1663 22.7533C35.8097 23.798 36.7203 24.6521 37.8041 25.2274C38.8879 25.8026 40.1055 26.0783 41.3314 26.0257C42.5573 25.9732 43.7469 25.5945 44.7775 24.9287C45.8081 24.2628 46.6423 23.334 47.1941 22.2381C47.2178 22.1927 47.2302 22.1423 47.2301 22.0911C47.2295 22.0041 47.1947 21.9208 47.1331 21.8594C47.0715 21.7979 46.9881 21.7633 46.9011 21.7631L46.9021 21.7601ZM51.4971 9.94406C51.4971 11.6941 48.8711 11.6941 48.8711 9.94406C48.8711 8.19406 51.4971 8.19406 51.4971 9.94406ZM51.1701 25.3701V12.5701H49.2001V25.3701C49.2006 25.4569 49.2353 25.54 49.2967 25.6014C49.3581 25.6628 49.4412 25.6975 49.5281 25.6981H50.8411C50.9279 25.6975 51.011 25.6628 51.0724 25.6014C51.1338 25.54 51.1685 25.4569 51.1691 25.3701H51.1701V25.3701ZM59.7101 12.2501C57.7241 12.3441 56.1371 13.2931 55.1101 14.7421V12.8981C55.1095 12.8112 55.0748 12.7281 55.0134 12.6667C54.952 12.6053 54.8689 12.5706 54.7821 12.5701H53.4701C53.3832 12.5706 53.3001 12.6053 53.2387 12.6667C53.1773 12.7281 53.1426 12.8112 53.1421 12.8981V25.3701C53.1421 25.5501 53.2881 25.6981 53.4701 25.6981H54.7831C54.8699 25.6975 54.953 25.6628 55.0144 25.6014C55.0758 25.54 55.1105 25.4569 55.1111 25.3701V19.1341C55.1127 17.8857 55.588 16.6844 56.4408 15.7727C57.2936 14.8611 58.4606 14.3069 59.7061 14.2221C59.7932 14.2218 59.8768 14.1871 59.9384 14.1254C60.0001 14.0638 60.0348 13.9802 60.0351 13.8931V12.5771C60.0346 12.4911 60.0005 12.4087 59.9402 12.3474C59.8799 12.2862 59.798 12.2509 59.7121 12.2491L59.7101 12.2501V12.2501ZM72.7901 21.7501H71.2661C71.2156 21.7501 71.1659 21.7619 71.1208 21.7845C71.0757 21.807 71.0364 21.8398 71.0061 21.8801C70.5306 22.5836 69.8812 23.1522 69.121 23.5305C68.3607 23.9089 67.5156 24.0841 66.6676 24.0392C65.8196 23.9942 64.9977 23.7307 64.2817 23.2741C63.5657 22.8176 62.98 22.1836 62.5816 21.4337C62.1831 20.6839 61.9854 19.8437 62.0077 18.9948C62.03 18.1459 62.2716 17.3173 62.7089 16.5894C63.1462 15.8614 63.7643 15.2591 64.5033 14.8407C65.2423 14.4224 66.0769 14.2024 66.9261 14.2021C68.6241 14.2021 70.1201 15.0621 71.0061 16.3721C71.0681 16.4521 71.1641 16.5021 71.2661 16.5021H72.8001C72.8871 16.5018 72.9705 16.4672 73.0321 16.4058C73.0937 16.3443 73.1285 16.2611 73.1291 16.1741C73.129 16.1229 73.1167 16.0725 73.0931 16.0271C72.5191 14.8869 71.6397 13.9285 70.5528 13.259C69.466 12.5894 68.2146 12.2349 66.9381 12.2351C65.7114 12.2349 64.5069 12.562 63.4489 13.1828C62.3909 13.8035 61.5177 14.6953 60.9194 15.7662C60.3211 16.8371 60.0195 18.0483 60.0456 19.2746C60.0716 20.501 60.4245 21.6983 61.0678 22.7427C61.711 23.7872 62.6214 24.6411 63.7048 25.2163C64.7883 25.7915 66.0056 26.0671 67.2312 26.0148C68.4567 25.9624 69.6461 25.584 70.6766 24.9185C71.707 24.253 72.5412 23.3246 73.0931 22.2291C73.1168 22.1837 73.1292 22.1333 73.1291 22.0821C73.1285 21.9951 73.0937 21.9118 73.0321 21.8504C72.9705 21.7889 72.8871 21.7543 72.8001 21.7541L72.7901 21.7501V21.7501ZM76.7301 8.29306H75.4171C75.3302 8.29359 75.2471 8.32831 75.1857 8.38971C75.1243 8.45111 75.0896 8.53424 75.0891 8.62106V25.3611C75.0896 25.4479 75.1243 25.531 75.1857 25.5924C75.2471 25.6538 75.3302 25.6885 75.4171 25.6891H76.7301C76.8169 25.6885 76.9 25.6538 76.9614 25.5924C77.0228 25.531 77.0575 25.4479 77.0581 25.3611V8.63006C77.0575 8.54324 77.0228 8.46011 76.9614 8.39871C76.9 8.33731 76.8169 8.30259 76.7301 8.30206V8.29306V8.29306ZM85.9301 12.2331C84.7034 12.2329 83.4989 12.56 82.4409 13.1808C81.3829 13.8015 80.5097 14.6933 79.9114 15.7642C79.3131 16.8351 79.0115 18.0463 79.0376 19.2726C79.0636 20.499 79.4165 21.6963 80.0598 22.7407C80.703 23.7852 81.6134 24.6391 82.6968 25.2143C83.7803 25.7895 84.9976 26.0651 86.2232 26.0128C87.4487 25.9604 88.6381 25.582 89.6686 24.9165C90.699 24.251 91.5332 23.3226 92.0851 22.2271C92.111 22.1772 92.1236 22.1216 92.1216 22.0654C92.1196 22.0093 92.103 21.9547 92.0736 21.9068C92.0442 21.859 92.0029 21.8196 91.9538 21.7925C91.9046 21.7653 91.8492 21.7514 91.7931 21.7521H90.2601C90.2084 21.752 90.1574 21.7642 90.1113 21.7877C90.0653 21.8112 90.0254 21.8452 89.9951 21.8871C89.5444 22.5532 88.9373 23.0987 88.2268 23.4756C87.5164 23.8525 86.7243 24.0494 85.9201 24.0491C84.728 24.0489 83.5765 23.6163 82.6791 22.8316C81.7817 22.047 81.1993 20.9634 81.0401 19.7821H92.4741C92.558 19.7814 92.6386 19.7488 92.6994 19.6908C92.7601 19.6329 92.7965 19.5539 92.8011 19.4701L92.8111 19.1251C92.8111 17.2971 92.085 15.544 90.7925 14.2513C89.5 12.9587 87.747 12.2323 85.9191 12.2321L85.9301 12.2331V12.2331ZM81.1851 17.8131C81.4753 16.7779 82.0961 15.8661 82.9528 15.2166C83.8094 14.5671 84.855 14.2155 85.9301 14.2155C87.0051 14.2155 88.0507 14.5671 88.9074 15.2166C89.764 15.8661 90.3848 16.7779 90.6751 17.8131H81.1851ZM111.887 7.96606C109.261 7.96606 109.261 11.9061 111.887 11.9061C114.513 11.9061 114.513 7.96606 111.887 7.96606ZM113.527 12.5611V25.3611C113.527 25.4479 113.492 25.531 113.43 25.5924C113.369 25.6538 113.286 25.6885 113.199 25.6891H110.573C110.486 25.6891 110.403 25.6545 110.341 25.593C110.28 25.5315 110.245 25.4481 110.245 25.3611V12.5611H113.527V12.5611ZM101.67 26.0261C103.201 26.0257 104.688 25.516 105.897 24.5772C107.106 23.6384 107.968 22.324 108.348 20.8411C108.358 20.7935 108.357 20.7443 108.345 20.6972C108.333 20.65 108.312 20.606 108.281 20.5683C108.25 20.5306 108.212 20.5001 108.168 20.4789C108.124 20.4578 108.077 20.4466 108.028 20.4461H105.25C105.187 20.4464 105.126 20.4646 105.073 20.4987C105.02 20.5327 104.978 20.581 104.952 20.6381C104.603 21.3951 104.003 22.0081 103.253 22.373C102.504 22.7379 101.651 22.8322 100.84 22.6401C100.028 22.4479 99.3086 21.9811 98.8023 21.3187C98.2961 20.6564 98.0345 19.8393 98.0621 19.0061C98.0909 18.1939 98.3929 17.4153 98.9192 16.7961C99.4455 16.177 100.165 15.7535 100.962 15.5942C101.759 15.4349 102.586 15.5492 103.31 15.9184C104.034 16.2877 104.612 16.8904 104.951 17.6291C104.977 17.6863 105.019 17.7348 105.072 17.7687C105.125 17.8026 105.186 17.8204 105.249 17.8201H108.027C108.076 17.8199 108.124 17.8089 108.167 17.7879C108.211 17.767 108.25 17.7365 108.28 17.6989C108.311 17.6612 108.333 17.6171 108.344 17.57C108.356 17.5228 108.357 17.4736 108.347 17.4261C108.028 16.176 107.364 15.0405 106.431 14.1489C105.499 13.2573 104.335 12.6453 103.072 12.3826C101.808 12.1198 100.497 12.2168 99.2859 12.6625C98.0751 13.1082 97.0137 13.8848 96.2224 14.9039C95.431 15.9229 94.9416 17.1436 94.8096 18.4271C94.6777 19.7106 94.9086 21.0054 95.476 22.1641C96.0435 23.3229 96.9248 24.2991 98.0196 24.9818C99.1144 25.6646 100.379 26.0264 101.669 26.0261H101.67V26.0261ZM15.6821 20.8101C16.6927 20.8101 17.6619 20.4086 18.3765 19.694C19.0911 18.9794 19.4926 18.0102 19.4926 16.9996C19.4926 15.989 19.0911 15.0197 18.3765 14.3051C17.6619 13.5905 16.6927 13.1891 15.6821 13.1891C14.6716 13.1891 13.7025 13.5905 12.988 14.305C12.2735 15.0195 11.8721 15.9886 11.8721 16.9991C11.8721 18.0095 12.2735 18.9786 12.988 19.6931C13.7025 20.4077 14.6716 20.8091 15.6821 20.8091V20.8101Z" fill="#777777"/>
<path d="M15.6822 0.998896C8.22618 0.998896 1.96218 6.0989 0.18618 12.9989C0.169413 13.0609 0.160345 13.1247 0.15918 13.1889C0.15918 13.6079 0.49918 13.9509 0.92118 13.9509H7.37318C7.51928 13.9513 7.66237 13.9093 7.78504 13.83C7.90772 13.7506 8.00469 13.6373 8.06418 13.5039L8.07818 13.4769C8.88084 11.7423 10.2522 10.3342 11.9649 9.48586C13.6776 8.63756 15.6288 8.40005 17.495 8.81272C19.3612 9.2254 21.0303 10.2635 22.2256 11.7548C23.421 13.2462 24.0707 15.1013 24.0672 17.0126C24.0636 18.9238 23.407 20.7765 22.2062 22.2634C21.0053 23.7503 19.3323 24.7822 17.4646 25.188C15.5969 25.5937 13.6466 25.349 11.9371 24.4943C10.2275 23.6397 8.86141 22.2264 8.06518 20.4889C8.00515 20.3561 7.90818 20.2433 7.78584 20.164C7.6635 20.0848 7.52095 20.0424 7.37518 20.0419H0.92218C0.806111 20.0421 0.691637 20.0689 0.587517 20.1202C0.483397 20.1715 0.392389 20.246 0.321458 20.3378C0.250526 20.4297 0.20155 20.5366 0.178276 20.6503C0.155002 20.764 0.158048 20.8815 0.18718 20.9939C1.96418 27.8939 8.22918 32.9939 15.6842 32.9939C24.5212 32.9929 31.6982 25.8299 31.6982 16.9939C31.6982 8.1569 24.5342 0.993896 15.6982 0.993896L15.6822 0.998896V0.998896Z" fill="#777777"/>
</svg>
