<svg width="201" height="51" viewBox="0 0 201 51" fill="none" xmlns="http://www.w3.org/2000/svg">
<path fill-rule="evenodd" clip-rule="evenodd" d="M65.5022 36.3067H56.1113V14.6959H65.5022C72.2667 14.6959 75.6539 18.1019 75.6539 24.9115C75.6514 32.5066 72.2667 36.3067 65.5022 36.3067ZM60.1238 32.8279H64.8946C69.3891 32.8279 71.6339 30.1899 71.6339 24.909C71.6339 20.4136 69.3866 18.1647 64.8946 18.1647H60.1238V32.8279ZM79.8572 36.3067H75.7342L84.9318 14.6959H89.2481L98.6415 36.3067H94.3252L91.5983 30.4133H84.6606L86.0391 26.937H90.5387L86.9933 18.8198L79.8572 36.3067ZM96.3741 14.6959H112.811V18.1697H106.601V36.3067H102.589V18.1697H96.3741V14.6959ZM114.875 36.3067H110.752L119.949 14.6959H124.266L133.659 36.3067H129.338L126.611 30.4133H119.673L121.052 26.937H125.551L122.008 18.8198L114.875 36.3067ZM145.714 36.3067H136.323V14.6959H145.714C152.483 14.6959 155.866 18.1019 155.866 24.9115C155.866 32.5066 152.483 36.3067 145.714 36.3067ZM140.338 32.8279H145.109C149.601 32.8279 151.853 30.1899 151.853 24.909C151.853 20.4136 149.603 18.1647 145.109 18.1647H140.338V32.8279ZM158.585 25.5314C158.585 18.2023 162.213 14.5403 169.465 14.5403C176.606 14.5403 180.171 18.2023 180.171 25.5314C180.171 32.8179 176.603 36.4623 169.465 36.4623C162.535 36.4623 158.909 32.8179 158.585 25.5314V25.5314ZM169.465 32.9785C173.824 32.9785 176.006 30.466 176.006 25.436C176.006 20.4864 173.824 18.0091 169.465 18.0091C164.99 18.0091 162.753 20.4864 162.753 25.436C162.753 30.466 164.99 32.9785 169.465 32.9785ZM196.922 27.562V32.6221C195.995 32.863 195.167 32.9835 194.436 32.9835C189.527 32.9835 187.076 30.3882 187.076 25.2001C187.076 20.4086 189.678 18.0166 194.878 18.0166C197.05 18.0166 199.069 18.4207 200.937 19.2264V15.597C199.069 14.8942 196.947 14.5403 194.574 14.5403C186.798 14.5403 182.908 18.0919 182.908 25.2001C182.908 32.7049 186.73 36.4623 194.376 36.4623C197.005 36.4623 199.189 36.0808 200.937 35.3128V24.0054H194.454L193.098 27.5595L196.922 27.562Z" fill="#777777"/>
<path fill-rule="evenodd" clip-rule="evenodd" d="M39.8909 36.1837L35.6549 33.3926L32.1221 39.291L28.0142 38.0912L24.3959 43.6107L24.5817 45.3475L44.2499 41.7257L43.1074 29.4419L39.8909 36.1837V36.1837ZM21.5485 30.8901L24.7048 30.4559C25.2145 30.6843 25.571 30.7722 26.1837 30.9278C27.1379 31.1763 28.2402 31.4147 29.8748 30.5915C30.2539 30.4032 31.0474 29.6778 31.3663 29.2662L44.2951 26.9219L45.6133 42.8777L23.4644 46.8686L21.5485 30.8901V30.8901ZM45.5631 25.1398L44.2875 25.3833L41.8369 0.0627441L0.0625 4.90447L5.20991 46.6527L10.0987 45.9424C9.7095 45.3852 9.09934 44.71 8.06233 43.8466C6.62105 42.6518 7.13077 40.6188 7.98198 39.3362C9.10436 37.1701 14.8971 34.4141 14.5681 30.9504C14.4501 29.6904 14.2493 28.0514 13.0792 26.9269C13.0365 27.3938 13.1143 27.843 13.1143 27.843C13.1143 27.843 12.6347 27.2306 12.3937 26.3948C12.1551 26.0735 11.9693 25.9731 11.7157 25.5439C11.5349 26.0384 11.5601 26.6132 11.5601 26.6132C11.5601 26.6132 11.1683 25.6845 11.1031 24.9014C10.8695 25.2528 10.8118 25.9179 10.8118 25.9179C10.8118 25.9179 10.3021 24.4546 10.4176 23.6665C10.1841 22.9812 9.49356 21.6208 9.68941 18.5286C10.965 19.4221 13.7722 19.2088 14.8644 17.5974C15.2285 17.0627 15.4771 15.607 14.6837 12.7381C14.1739 10.8983 12.9134 8.15738 12.4213 7.11575L12.3636 7.15842C12.6222 7.99675 13.157 9.75121 13.3629 10.6046C13.9831 13.1874 14.1488 14.0859 13.8576 15.2756C13.609 16.3098 13.0164 16.9874 11.5098 17.7455C10.0033 18.506 8.00457 16.6561 7.87652 16.5557C6.41264 15.3911 5.28021 13.4886 5.15467 12.5649C5.0241 11.5534 5.7372 10.946 6.09878 10.1202C5.58404 10.2683 5.00903 10.5293 5.00903 10.5293C5.00903 10.5293 5.69452 9.81898 6.5407 9.20655C6.89223 8.97563 7.09562 8.82755 7.46472 8.52133C6.9299 8.5138 6.49551 8.52635 6.49551 8.52635C6.49551 8.52635 7.38689 8.04444 8.31091 7.69555C7.63547 7.66543 6.98765 7.69053 6.98765 7.69053C6.98765 7.69053 8.9763 6.802 10.5456 6.14941C11.6253 5.70766 12.6799 5.83818 13.2725 6.69407C14.0509 7.81603 14.8669 8.42595 16.5995 8.80496C17.6641 8.33308 17.9855 8.09213 19.3213 7.72818C20.4965 6.43555 21.4205 6.26738 21.4205 6.26738C21.4205 6.26738 20.9635 6.68654 20.8405 7.34667C21.5084 6.82208 22.239 6.38284 22.239 6.38284C22.239 6.38284 21.9553 6.73172 21.6917 7.28643L21.7519 7.37678C22.5303 6.90993 23.4443 6.54348 23.4443 6.54348C23.4443 6.54348 23.1832 6.87479 22.8768 7.30149C23.4644 7.29647 24.6546 7.32659 25.1141 7.37929C27.8409 7.43953 28.4059 4.46773 29.4529 4.09626C30.7637 3.62941 31.3487 3.34578 33.5809 5.53698C35.4968 7.41945 36.9933 10.7853 36.25 11.5408C35.6273 12.1658 34.397 11.2974 33.036 9.59811C32.3154 8.69954 31.773 7.63782 31.5169 6.28746C31.301 5.14793 30.4649 4.48781 30.4649 4.48781C30.4649 4.48781 30.9495 5.56961 30.9495 6.5234C30.9495 7.04547 31.0147 8.9932 31.8509 10.085C31.768 10.2457 31.7304 10.8757 31.6375 10.9962C30.6657 9.82149 28.5766 8.98065 28.2377 8.73217C29.3902 9.67591 32.0392 11.8445 33.0561 13.9228C34.0178 15.8881 33.4503 17.6902 33.9375 18.1571C34.0756 18.2901 36.0065 20.6947 36.3781 21.9045C37.0259 24.0103 36.4158 26.2241 35.5696 27.5971L33.2018 27.966C32.8553 27.8707 32.6217 27.8205 32.3104 27.6422C32.4811 27.3385 32.8226 26.583 32.8251 26.4274L32.692 26.194C31.9538 27.2381 30.721 28.2522 29.694 28.8345C28.3506 29.595 26.8039 29.477 25.797 29.1658C22.9371 28.2848 20.2328 26.3521 19.5825 25.8451C19.5825 25.8451 19.5624 26.2492 19.6854 26.3421C20.4061 27.1553 22.0583 28.6262 23.6552 29.6502L20.2529 30.0242L21.8624 42.5464C21.1493 42.6493 21.0388 42.6995 20.2579 42.81C19.5699 40.3803 18.2542 38.7915 16.8154 37.8678C15.5474 37.0521 13.7973 36.8689 12.12 37.2002L12.012 37.3257C13.1771 37.2052 14.5531 37.3734 15.9642 38.2669C17.3503 39.1429 18.4676 41.4069 18.8794 42.7698C19.4067 44.5117 19.7708 46.3741 18.3521 48.3495C17.3427 49.7525 14.3999 50.5281 12.0196 48.8515C12.6548 49.873 13.5136 50.7088 14.6686 50.8645C16.3861 51.0979 18.0157 50.7992 19.1355 49.6496C20.0922 48.6657 20.6019 46.6076 20.4663 44.4415L21.9804 44.2231L22.5278 48.111L47.607 45.0915L45.5631 25.1398V25.1398ZM30.3042 14.5779C30.2338 14.7385 30.1234 14.8414 30.2891 15.361L30.2991 15.3911L30.3242 15.4589L30.392 15.6145C30.6908 16.2219 31.0173 16.7967 31.5621 17.0904C31.7027 17.0678 31.8509 17.0502 32.0015 17.0427C32.5138 17.0201 32.8377 17.1004 33.0436 17.2133C33.0612 17.1104 33.0662 16.9623 33.0536 16.7415C33.0134 15.9709 33.2068 14.6607 31.7253 13.9705C31.1654 13.7119 30.382 13.7897 30.1209 14.116C30.1686 14.1211 30.2112 14.1311 30.2439 14.1437C30.6431 14.2792 30.377 14.4147 30.3042 14.5779M34.4572 21.7689C34.2639 21.661 33.3549 21.7037 32.7172 21.779C31.5019 21.922 30.1886 22.3437 29.8999 22.5671C29.3776 22.9712 29.6136 23.6765 30.0003 23.9652C31.0851 24.7734 32.0342 25.318 33.036 25.185C33.6512 25.1047 34.1936 24.1308 34.5778 23.2448C34.8439 22.6374 34.8439 21.9823 34.4572 21.7689ZM23.6929 15.5317C24.0369 15.2054 21.9854 14.7787 20.3935 15.863C19.2209 16.6637 19.1832 18.3805 20.3056 19.3518C20.4186 19.4472 20.5115 19.5175 20.5969 19.5727C20.9258 19.4171 21.3 19.2615 21.7293 19.1234C22.4575 18.8875 23.0601 18.7645 23.5573 18.7018C23.7958 18.4357 24.072 17.9688 24.0017 17.123C23.9088 15.9709 23.0375 16.1541 23.6929 15.5317" fill="#777777"/>
</svg>
