<svg width="122" height="36" viewBox="0 0 122 36" fill="none" xmlns="http://www.w3.org/2000/svg">
<path d="M12.928 21.802C12.9342 22.5767 12.76 23.3423 12.419 24.038C12.08 24.717 11.599 25.302 10.996 25.774C10.384 26.254 9.658 26.623 8.82 26.887C7.981 27.151 7.058 27.283 6.059 27.283C4.862 27.283 3.788 27.123 2.846 26.793C1.903 26.471 0.952 25.924 0 25.17L1.574 22.613C2.327 23.245 3.006 23.708 3.618 24C4.19854 24.2857 4.83697 24.4342 5.484 24.434C6.266 24.434 6.888 24.236 7.369 23.83C7.849 23.425 8.075 22.887 8.075 22.198C8.075 21.906 8.028 21.632 7.943 21.378C7.859 21.123 7.698 20.858 7.473 20.585C7.1861 20.2613 6.86714 19.9674 6.521 19.708C6.01086 19.3072 5.49241 18.9171 4.966 18.538C4.486 18.198 4.005 17.84 3.543 17.481C3.0934 17.1231 2.67122 16.732 2.28 16.311C1.90399 15.8965 1.59555 15.4254 1.366 14.915C1.12875 14.3607 1.0102 13.7629 1.018 13.16C1.018 12.406 1.178 11.707 1.488 11.085C1.79854 10.4663 2.2393 9.92222 2.78 9.49C3.326 9.046 3.976 8.707 4.75 8.461C5.5577 8.20884 6.39989 8.08468 7.246 8.093C8.198 8.093 9.112 8.216 9.998 8.471C10.8707 8.71914 11.7023 9.09414 12.466 9.584L11.044 11.886C10.073 11.206 9.046 10.857 7.972 10.857C7.322 10.857 6.775 11.027 6.351 11.367C5.927 11.707 5.711 12.131 5.711 12.65C5.711 13.14 5.899 13.584 6.276 13.97C6.653 14.367 7.303 14.905 8.226 15.622C9.159 16.301 9.932 16.905 10.535 17.414C11.147 17.924 11.628 18.414 11.985 18.867C12.344 19.32 12.58 19.773 12.721 20.244C12.862 20.725 12.928 21.234 12.928 21.801V21.802ZM29.088 17.491C29.088 18.198 29.013 18.962 28.862 19.783C28.7281 20.575 28.4738 21.3419 28.108 22.057C27.75 22.755 27.288 23.33 26.714 23.774C26.139 24.226 25.404 24.453 24.528 24.453C23.058 24.453 21.898 23.868 21.051 22.689C20.203 21.519 19.779 19.906 19.779 17.859C19.779 15.755 20.203 14.094 21.069 12.859C21.927 11.623 23.095 11.009 24.565 11.009C25.96 11.009 27.062 11.594 27.873 12.745C28.683 13.905 29.088 15.491 29.088 17.491V17.491ZM34.195 17.311C34.195 15.943 33.998 14.698 33.611 13.585C33.215 12.462 32.669 11.5 31.943 10.689C31.23 9.88767 30.3569 9.24482 29.38 8.802C28.39 8.349 27.298 8.122 26.101 8.122C24.782 8.122 23.623 8.377 22.624 8.868C21.625 9.368 20.693 10.151 19.844 11.226L19.816 8.556H15.114V36H19.807V24.406C20.269 24.943 20.711 25.396 21.145 25.764C21.569 26.132 22.002 26.434 22.445 26.66C22.888 26.887 23.35 27.057 23.84 27.151C24.33 27.245 24.857 27.293 25.413 27.293C26.6156 27.2993 27.8052 27.0448 28.9 26.547C29.9695 26.0532 30.9205 25.3358 31.689 24.443C32.471 23.538 33.084 22.481 33.526 21.283C33.979 20.076 34.196 18.745 34.196 17.311H34.195ZM36.287 26.849H41.112V0H36.287V26.85V26.849ZM61.691 26.859V8.537H56.867V18.395C56.867 19.273 56.829 19.952 56.754 20.433C56.6866 20.8808 56.563 21.3182 56.386 21.735C55.708 23.245 54.454 24.008 52.636 24.008C51.213 24.008 50.224 23.499 49.658 22.471C49.426 22.0619 49.2695 21.6145 49.196 21.15C49.112 20.66 49.065 19.952 49.065 19.018V8.538H44.24V18.943C44.24 19.651 44.25 20.255 44.259 20.736C44.2753 21.5128 44.3637 22.2865 44.523 23.047C44.579 23.34 44.673 23.623 44.796 23.887C45.239 25.009 45.946 25.858 46.935 26.434C47.925 27.009 49.14 27.292 50.572 27.292C51.863 27.292 53.003 27.066 53.983 26.613C54.963 26.16 55.915 25.424 56.838 24.396L56.848 26.849L61.691 26.859ZM82.478 26.849V16.462C82.478 15.755 82.468 15.151 82.459 14.651C82.449 14.151 82.421 13.717 82.365 13.349C82.3227 13.0253 82.2626 12.7041 82.185 12.387C82.11 12.104 82.025 11.83 81.931 11.566C81.489 10.472 80.781 9.623 79.792 9.028C78.803 8.434 77.587 8.132 76.146 8.132C74.855 8.132 73.715 8.358 72.735 8.812C71.755 9.264 70.803 10.009 69.88 11.028L69.87 8.575H65.017V26.86H69.88V16.99C69.88 16.14 69.908 15.47 69.974 14.999C70.03 14.527 70.153 14.084 70.323 13.659C70.6079 12.9596 71.1183 12.3754 71.773 11.999C72.423 11.622 73.196 11.433 74.101 11.433C75.524 11.433 76.513 11.943 77.079 12.971C77.295 13.357 77.446 13.801 77.531 14.282C77.616 14.763 77.663 15.48 77.663 16.405V26.84L82.478 26.85V26.849ZM102.435 25.642L95.085 16.5L101.295 9.84L97.639 8.264L91.175 15.764H90.666V0H85.804V26.85H90.666V17.123L97.941 27.217L102.435 25.642ZM121.225 19.076V16.085L106.61 8.745V12.038L117.936 17.557L106.61 23.151V26.368L121.225 19.076V19.076ZM108.023 4C107.128 4 106.402 4.736 106.402 5.642C106.402 6.566 107.128 7.292 108.023 7.292C108.928 7.292 109.644 6.566 109.644 5.642C109.647 5.42733 109.607 5.21422 109.527 5.01506C109.447 4.8159 109.328 4.63466 109.177 4.48188C109.026 4.3291 108.846 4.20782 108.648 4.1251C108.45 4.04237 108.238 3.99985 108.023 4ZM108.033 4.255C108.758 4.255 109.342 4.877 109.342 5.651C109.342 6.425 108.758 7.047 108.033 7.038C107.298 7.038 106.713 6.425 106.713 5.642C106.713 4.877 107.298 4.255 108.033 4.255V4.255ZM107.722 5.811H107.919C108.155 5.811 108.268 5.896 108.315 6.132C108.353 6.377 108.4 6.538 108.438 6.594H108.749C108.72 6.538 108.673 6.424 108.636 6.142C108.598 5.868 108.494 5.726 108.325 5.698V5.68C108.523 5.624 108.683 5.473 108.683 5.237C108.683 5.067 108.626 4.935 108.513 4.859C108.4 4.775 108.221 4.718 107.948 4.718C107.731 4.718 107.58 4.737 107.43 4.765V6.595H107.722V5.812V5.811ZM107.722 4.962C107.769 4.952 107.835 4.943 107.929 4.943C108.259 4.943 108.372 5.103 108.372 5.264C108.372 5.491 108.164 5.575 107.929 5.575H107.722V4.962Z" fill="#777777"/>
</svg>
