<svg width="100" height="100" viewBox="0 0 100 100" fill="none" xmlns="http://www.w3.org/2000/svg">
<path d="M47.234 49.5471C47.2339 48.9878 47.0116 48.4515 46.6161 48.0561L12.0673 13.5104C11.6718 13.1151 11.1355 12.893 10.5763 12.893C10.0171 12.893 9.48073 13.1151 9.08525 13.5104L0.617818 21.9768C0.421959 22.1725 0.266583 22.4048 0.160574 22.6606C0.0545643 22.9163 0 23.1905 0 23.4673C0 23.7442 0.0545643 24.0183 0.160574 24.2741C0.266583 24.5298 0.421959 24.7622 0.617818 24.9578L25.2071 49.5471L0.617818 74.1374C0.222451 74.5329 0.000346651 75.0692 0.000346651 75.6285C0.000346651 76.1877 0.222451 76.724 0.617818 77.1195L9.08525 85.5859C9.49754 85.9982 10.0364 86.2038 10.5763 86.2038C11.1162 86.2038 11.655 85.9982 12.0673 85.5859L46.6161 51.0371C47.0115 50.6427 47.234 50.1081 47.234 49.5471Z" fill="black"/>
<path d="M97.8911 73.6144H44.2669C43.7076 73.6144 43.1712 73.8366 42.7757 74.2321C42.3802 74.6276 42.158 75.164 42.158 75.7234V84.9996C42.158 85.5589 42.3802 86.0953 42.7757 86.4908C43.1712 86.8863 43.7076 87.1085 44.2669 87.1085H97.8911C98.4505 87.1085 98.9869 86.8863 99.3824 86.4908C99.7779 86.0953 100 85.5589 100 84.9996V75.7234C100 75.164 99.7779 74.6276 99.3824 74.2321C98.9869 73.8366 98.4505 73.6144 97.8911 73.6144Z" fill="#5F5FF6"/>
</svg>
