<svg width="100" height="100" viewBox="0 0 100 100" fill="none" xmlns="http://www.w3.org/2000/svg">
<g clip-path="url(#clip0_1117_174)">
<path d="M99.2534 48.0459C98.3608 47.0502 76.8911 23.6328 50.0001 23.6328C23.1091 23.6328 1.63954 47.0502 0.746768 48.0459C0.265882 48.5832 0 49.2789 0 50C0 50.7211 0.265882 51.4168 0.746768 51.9541C1.63954 52.9498 23.1095 76.3672 50.0001 76.3672C76.8907 76.3672 98.3606 52.9498 99.2534 51.9541C99.7342 51.4168 100 50.721 100 50C100 49.279 99.7342 48.5832 99.2534 48.0459ZM50.0001 70.5078C38.6933 70.5078 29.4923 61.3068 29.4923 50C29.4923 38.6932 38.6933 29.4922 50.0001 29.4922C61.3069 29.4922 70.5079 38.6932 70.5079 50C70.5079 61.3068 61.3069 70.5078 50.0001 70.5078Z" fill="black"/>
<path d="M52.9297 44.1406C52.9297 41.1934 54.3928 38.6006 56.6186 37.0059C54.6213 35.9834 52.3936 35.3516 50 35.3516C41.9232 35.3516 35.3516 41.9232 35.3516 50C35.3516 58.0768 41.9232 64.6484 50 64.6484C57.2312 64.6484 63.2164 59.3684 64.3988 52.4691C58.4992 54.3686 52.9297 49.9066 52.9297 44.1406Z" fill="#5F5FF6"/>
</g>
<defs>
<clipPath id="clip0_1117_174">
<rect width="100" height="100" fill="white"/>
</clipPath>
</defs>
</svg>
