<svg width="100" height="100" viewBox="0 0 100 100" fill="none" xmlns="http://www.w3.org/2000/svg">
<g clip-path="url(#clip0_1118_180)">
<path d="M97.95 0.0125119C78.4292 -0.337488 56.1667 9.86668 42.075 25.6958C28.4611 25.9814 15.4822 31.5082 5.8417 41.125C5.56535 41.3974 5.37058 41.7416 5.27935 42.1188C5.18811 42.496 5.20403 42.8912 5.32531 43.2598C5.4466 43.6284 5.66842 43.9558 5.96579 44.2051C6.26316 44.4544 6.62425 44.6157 7.00837 44.6708L23.0667 46.9708L21.0834 49.1917C20.7287 49.589 20.5397 50.1071 20.5552 50.6395C20.5707 51.1719 20.7895 51.6781 21.1667 52.0542L47.9459 78.8333C48.322 79.2108 48.8286 79.4295 49.3613 79.4443C49.894 79.459 50.412 79.2686 50.8084 78.9125L53.0292 76.9292L55.3292 92.9875C55.4417 93.7708 56.0584 94.3458 56.8042 94.5958C56.9967 94.6576 57.1978 94.6886 57.4 94.6875C58.0037 94.6789 58.5809 94.4388 59.0125 94.0167C68.5334 84.4958 74.0542 71.3834 74.3084 57.9167C90.1542 43.7958 100.442 21.5417 99.9875 2.04585C99.9728 1.51052 99.7532 1.00124 99.3742 0.622953C98.9951 0.244663 98.4854 0.0261768 97.95 0.0125119V0.0125119ZM78.75 35.9792C76.7209 38.0084 74.0542 39.025 71.3834 39.025C68.7125 39.025 66.0459 38.0084 64.0167 35.9792C62.0677 34.0229 60.9734 31.374 60.9734 28.6125C60.9734 25.8511 62.0677 23.2021 64.0167 21.2458C68.0792 17.1833 74.6875 17.1833 78.75 21.2458C82.8125 25.3083 82.8125 31.9209 78.75 35.9792Z" fill="black"/>
<path d="M11.35 70.4375C6.89166 74.8958 0.770826 95.0375 0.0874921 97.3167C-0.0182002 97.677 -0.0249418 98.0591 0.0679749 98.423C0.160892 98.7868 0.35004 99.1189 0.615565 99.3844C0.88109 99.6499 1.2132 99.8391 1.57703 99.932C1.94086 100.025 2.323 100.018 2.68333 99.9125C4.96249 99.2292 25.1042 93.1083 29.5625 88.65C31.9743 86.2331 33.3289 82.9581 33.3289 79.5437C33.3289 76.1293 31.9743 72.8544 29.5625 70.4375C27.1451 68.0267 23.8703 66.6729 20.4562 66.6729C17.0422 66.6729 13.7674 68.0267 11.35 70.4375V70.4375Z" fill="#5F5FF6"/>
</g>
<defs>
<clipPath id="clip0_1118_180">
<rect width="100" height="100" fill="white"/>
</clipPath>
</defs>
</svg>
