<svg width="20" height="20" viewBox="0 0 20 20" fill="none" xmlns="http://www.w3.org/2000/svg">
<path d="M9.96133 0C4.46055 0 0 4.58446 0 10.2399C0 14.7642 2.85422 18.6025 6.81219 19.9565C7.31 20.0513 7.49281 19.7344 7.49281 19.4639C7.49281 19.2197 7.48352 18.413 7.4793 17.5574C4.70797 18.1768 4.1232 16.3492 4.1232 16.3492C3.67008 15.1656 3.01719 14.851 3.01719 14.851C2.11344 14.2154 3.08531 14.2284 3.08531 14.2284C4.08563 14.3007 4.61234 15.2837 4.61234 15.2837C5.50078 16.8492 6.94266 16.3965 7.51109 16.135C7.60047 15.4731 7.85867 15.0214 8.14352 14.7657C5.93102 14.5067 3.60508 13.6287 3.60508 9.70507C3.60508 8.58716 3.99422 7.67364 4.63148 6.95656C4.52805 6.69861 4.18711 5.65716 4.72797 4.24668C4.72797 4.24668 5.56445 3.97146 7.46805 5.29633C8.26258 5.06937 9.11477 4.95565 9.96133 4.9518C10.8079 4.95565 11.6607 5.06937 12.4568 5.29633C14.3581 3.97146 15.1934 4.24668 15.1934 4.24668C15.7356 5.65716 15.3945 6.69861 15.2911 6.95656C15.9298 7.67364 16.3163 8.58708 16.3163 9.70507C16.3163 13.638 13.9859 14.504 11.7678 14.7575C12.1251 15.0753 12.4434 15.6985 12.4434 16.6538C12.4434 18.0238 12.4319 19.1266 12.4319 19.4639C12.4319 19.7364 12.6112 20.0557 13.1162 19.9551C17.072 18.5996 19.9226 14.7626 19.9226 10.2399C19.9226 4.58446 15.4627 0 9.96133 0Z" fill="#777777"/>
<path d="M3.73091 14.5869C3.70904 14.6377 3.63107 14.653 3.56021 14.6181C3.48794 14.5847 3.44732 14.5154 3.47076 14.4643C3.49224 14.4119 3.57021 14.3973 3.64232 14.4325C3.71474 14.4658 3.75599 14.5358 3.73091 14.5869M4.22091 15.0363C4.17341 15.0816 4.08052 15.0606 4.01747 14.989C3.95232 14.9176 3.94013 14.8222 3.98833 14.7762C4.03732 14.731 4.1274 14.7521 4.19271 14.8236C4.25787 14.8958 4.27052 14.9906 4.22083 15.0364M4.55708 15.6113C4.49599 15.6549 4.39615 15.6141 4.33451 15.523C4.27349 15.432 4.27349 15.3228 4.33583 15.279C4.39771 15.2352 4.49599 15.2746 4.55849 15.3649C4.61943 15.4575 4.61943 15.5668 4.55701 15.6114M5.12552 16.2773C5.07091 16.3392 4.95466 16.3226 4.86951 16.2382C4.78247 16.1556 4.75818 16.0384 4.81294 15.9765C4.86818 15.9145 4.98513 15.9319 5.07091 16.0157C5.1574 16.0981 5.1838 16.2161 5.1256 16.2773M5.86021 16.5022C5.83623 16.5824 5.72419 16.6188 5.61138 16.5848C5.49872 16.5497 5.42498 16.4557 5.44771 16.3747C5.47115 16.294 5.58365 16.256 5.69732 16.2924C5.80982 16.3274 5.88373 16.4206 5.86029 16.5022M6.69646 16.5975C6.69927 16.682 6.60357 16.7521 6.48513 16.7536C6.36599 16.7562 6.26966 16.6879 6.26841 16.6048C6.26841 16.5196 6.36193 16.4502 6.48099 16.4482C6.59943 16.4458 6.69646 16.5136 6.69646 16.5975M7.51787 16.5652C7.53208 16.6476 7.44974 16.7322 7.33216 16.7547C7.21654 16.7764 7.10951 16.7255 7.09474 16.6439C7.08037 16.5594 7.16427 16.4748 7.27966 16.4529C7.39748 16.4319 7.50287 16.4814 7.51787 16.5652" fill="#777777"/>
</svg>
